<svg width="57" height="33" viewBox="0 0 57 33" fill="none" xmlns="http://www.w3.org/2000/svg">
<path d="M 33.0939 18.6699 L 29.7137 10.0866 C 29.7135 10.0861 29.7133 10.0856 29.7131 10.085 C 29.0599 8.4574 28.4209 6.6807 27.7959 4.7553 C 27.6399 5.2633 27.4644 5.8131 27.2694 6.4047 C 26.8843 7.6012 26.4717 8.784 26.0316 9.9531 L 22.758 18.6699 Z M 33.0939 18.6699 H 22.758 M 33.0939 18.6699 H 22.758 M 22.758 18.6699 L 26 10 L 22.758 18.6699 Z M 1.9427 22.3031 L 1.4863 22.3558 L 1.5002 22.815 C 1.5909 25.7984 2.2767 28.1238 3.6353 29.7083 C 5.0082 31.3093 7.0009 32.0772 9.5264 32.0772 C 11.3175 32.0772 12.8496 31.7868 14.0937 31.1814 L 13.9471 31.5645 H 14.6738 H 17.668 H 18.0161 L 18.1369 31.2379 L 21.5435 22.0283 H 34.4097 L 36.7266 27.9477 C 36.3918 28.8807 36.1706 29.9041 36.0596 31.0148 L 36.0046 31.5645 H 36.5571 H 55.9575 H 56.4575 V 31.0645 V 28.6241 V 28.1241 H 55.9575 H 40.9897 L 40.7832 27.6145 C 41.0015 27.2542 41.2456 26.9109 41.5157 26.5844 L 41.5186 26.5807 C 42.0834 25.8846 42.7638 25.2033 43.5627 24.5375 L 43.5633 24.537 C 44.3865 23.8488 45.6286 22.8847 47.2945 21.6421 L 47.2964 21.6407 L 48.8755 20.4512 L 48.8766 20.4504 C 50.693 19.0743 52.1438 17.8264 53.221 16.7072 C 54.3045 15.5815 55.1203 14.4276 55.6544 13.2438 L 55.6554 13.2417 C 56.1922 12.0374 56.4575 10.7231 56.4575 9.3057 C 56.4575 7.6732 56.0447 6.1809 55.2153 4.8411 C 54.3998 3.488 53.2505 2.4291 51.7814 1.6652 C 50.3199 0.8844 48.6658 0.5001 46.8315 0.5001 C 44.0914 0.5001 41.8225 1.2079 40.0719 2.6667 C 38.3125 4.1329 37.2185 6.3425 36.7406 9.2239 L 36.6563 9.7324 L 37.167 9.8013 L 39.751 10.1499 L 40.2418 10.2161 L 40.3127 9.726 C 40.6173 7.6201 41.3129 6.1097 42.3467 5.1254 C 43.3736 4.1477 44.7935 3.6329 46.6674 3.6329 C 47.8712 3.6329 48.9267 3.8719 49.8457 4.3377 C 50.7608 4.8015 51.4687 5.4608 51.9798 6.3209 C 52.4875 7.1754 52.7504 8.1917 52.7504 9.3878 C 52.7504 10.5222 52.5254 11.5397 52.0837 12.449 C 51.6405 13.3475 50.865 14.3394 49.728 15.4231 C 48.588 16.4959 46.9122 17.8418 44.691 19.4634 L 44.6907 19.4637 C 42.4931 21.0706 40.7876 22.483 39.5853 23.6994 L 39.5853 23.6994 C 39.492 23.7938 39.4007 23.888 39.3114 23.982 L 29.9234 0.8122 L 29.7969 0.5 H 29.46 H 26.1787 H 25.8347 L 25.7117 0.8213 L 18.168 20.5346 V 1 V 0.5 H 17.668 H 14.8174 H 14.3174 V 1 V 22.6562 C 14.3174 24.7958 13.9068 26.2903 13.1725 27.2291 C 12.4561 28.1453 11.3619 28.6367 9.793 28.6367 C 8.2464 28.6367 7.1626 28.1689 6.4476 27.3026 C 5.7321 26.4189 5.2735 24.8461 5.1655 22.4695 L 5.1412 21.934 L 4.6087 21.9955 L 1.9427 22.3031 Z" stroke="black"/>
</svg>
